<?xml version="1.0" ?><svg viewBox="0 0 64 64" xmlns="http://www.w3.org/2000/svg"><defs><style>.cls-1{fill:#e0e9ee;}.cls-2{fill:#748a95;}.cls-3{fill:#efc89d;}.cls-4{fill:#617880;}.cls-5{fill:#ebb87f;}.cls-6{fill:#172335;}</style></defs><g id="Ninja"><path class="cls-1" d="M27.11,36.47v6.85l-2.55,1.49s-2.7,3.47-2.18,5.65S26.71,56,26.71,56H37.3s3.82-3.36,4.34-5.54-2.18-5.65-2.18-5.65L36.9,43.32V36.47Z" id="path123162-1-5-3"/><path class="cls-1" d="M17.64,49.11,10.51,36.77l4.56-2.64,7,12.13-.22,3.47Z" id="path92219-8"/><path class="cls-1" d="M46.36,49.1l7.13-12.35-4.56-2.63-7,12.13.22,3.47Z" id="path92935-0"/><path class="cls-2" d="M39.46,44.81A104,104,0,0,1,37.3,56H48a1.53,1.53,0,0,0,1.5-1.82c-.58-2.92-2.7-5.07-5.28-6.58Z" id="path106342-7"/><path class="cls-2" d="M24.56,44.81,19.78,47.6c-2.57,1.51-4.7,3.66-5.27,6.58A1.52,1.52,0,0,0,16,56H26.71A105.53,105.53,0,0,1,24.56,44.81Z" id="path63308-3-4"/><path class="cls-2" d="M43.3,30.2c-2,5.13-6.33,9.67-11.29,9.67s-9.25-4.54-11.3-9.67c-1-2.52-1.19-7-1.19-9.71a12.49,12.49,0,0,1,25,0C44.5,23.22,44.31,27.68,43.3,30.2Z" id="path25222-7-2-9-4"/><path class="cls-3" d="M26.53,20.55H37.48a3.39,3.39,0,1,1,0,6.77H26.53a3.39,3.39,0,1,1,0-6.77Z" id="rect81785-7"/><path class="cls-2" d="M8.79,31.62l2.66,4.61,2.69-1.56-2.66-4.61a1.55,1.55,0,0,0-2.69,1.56Z" id="path84599-5"/><path class="cls-2" d="M55.21,31.61l-2.66,4.6-2.69-1.55,2.66-4.61a1.55,1.55,0,1,1,2.69,1.56Z" id="path86849-6"/><path class="cls-4" d="M32,8a13,13,0,0,0-1.54.1,12.49,12.49,0,0,1,11,12.39c0,2.73-.19,7.19-1.2,9.72-1.82,4.58-5.45,8.7-9.75,9.51a7.88,7.88,0,0,0,1.54.15c5,0,9.25-4.54,11.29-9.66,1-2.53,1.2-7,1.2-9.72A12.49,12.49,0,0,0,32,8Z" id="path138070"/><path class="cls-5" d="M34.66,20.55a3.39,3.39,0,0,1,0,6.77h2.82a3.39,3.39,0,1,0,0-6.77Z" id="path143906"/><path class="cls-6" d="M41.87,23.93a4.39,4.39,0,0,0-4.39-4.38H26.53a4.39,4.39,0,1,0,0,8.77H37.48A4.4,4.4,0,0,0,41.87,23.93Zm-17.73,0a2.39,2.39,0,0,1,2.39-2.38H37.48a2.39,2.39,0,1,1,0,4.77H26.53A2.39,2.39,0,0,1,24.14,23.93Z"/><path class="cls-6" d="M10.08,35.86l-.07,0h0l-1.55.9a1,1,0,0,0-.37,1.36,1,1,0,0,0,1.37.37l.69-.4,6.23,10.8A9.72,9.72,0,0,0,13.52,54,2.53,2.53,0,0,0,16,57H48a2.53,2.53,0,0,0,2-.92A2.48,2.48,0,0,0,50.49,54a9.66,9.66,0,0,0-2.87-5.07l6.23-10.8.69.4a1,1,0,1,0,1-1.74l-1.62-.93,2.16-3.74a2.57,2.57,0,0,0-.94-3.5,2.56,2.56,0,0,0-3.49.94l-2.16,3.74-1.62-.94a1,1,0,0,0-1,1.74l.69.39-6,10.4L40,44h0l-2.06-1.2V38.89a18.73,18.73,0,0,0,6.33-8.32c1.11-2.77,1.27-7.5,1.27-10.08a13.49,13.49,0,0,0-27,0c0,2.58.16,7.31,1.27,10.08a18.71,18.71,0,0,0,6.32,8.32v3.86L24.05,44h0l-1.61.94-6-10.39.69-.4a1,1,0,1,0-1-1.73l-1.62.93-2.16-3.74a2.54,2.54,0,0,0-1.55-1.19,2.61,2.61,0,0,0-2,.26,2.55,2.55,0,0,0-.93,3.49Zm5.52,19a.53.53,0,0,1-.11-.44c.46-2.33,2.07-4.31,4.8-5.9l3.49-2c.29,1.9.86,5.35,1.65,8.57H16A.52.52,0,0,1,15.6,54.81Zm32.93-.44A.52.52,0,0,1,48,55H38.59c.78-3.22,1.35-6.67,1.64-8.57l3.5,2C46.45,50.06,48.07,52.05,48.53,54.37Zm4.85-23.82a.59.59,0,0,1,.34-.26.55.55,0,0,1,.43.06.56.56,0,0,1,.2.76l-2.16,3.74-1-.56Zm-4.09,4.94,2.83,1.63L46.06,47.61c-.42-.3-.85-.6-1.32-.87l-1.46-.85ZM21.64,29.83c-1-2.55-1.12-7.38-1.12-9.34a11.49,11.49,0,0,1,23,0c0,2-.11,6.79-1.13,9.34-1.79,4.5-5.69,9-10.36,9S23.43,34.33,21.64,29.83Zm6,14.36a1,1,0,0,0,.49-.87V40a9.35,9.35,0,0,0,7.79,0v3.3a1,1,0,0,0,.5.87l2,1.15c-.09.66-.26,1.76-.49,3.09H35.56a3.31,3.31,0,0,0-2.85,1.65,1,1,0,0,0,.36,1.37,1,1,0,0,0,1.37-.37,1.3,1.3,0,0,1,1.12-.65h2c-.28,1.48-.61,3.07-1,4.57h-9c-.38-1.5-.71-3.09-1-4.57h1.95a1.3,1.3,0,0,1,1.13.65,1,1,0,0,0,1.36.37,1,1,0,0,0,.37-1.37,3.33,3.33,0,0,0-2.86-1.65H26.14c-.23-1.33-.4-2.43-.5-3.09ZM20.71,45.9l-1.43.84c-.48.28-.92.58-1.34.88L11.88,37.13l2.83-1.63ZM9.86,30.36a.62.62,0,0,1,.42-.06.59.59,0,0,1,.34.26l2.16,3.74-1,.56L9.65,31.12A.56.56,0,0,1,9.86,30.36Z"/></g></svg>