<svg xmlns="http://www.w3.org/2000/svg" viewBox="0 0 64 64"><g id="Ninja"><path id="path123162-1-5-3" d="M27.11 36.47v6.85l-2.55 1.49s-2.7 3.47-2.18 5.65S26.71 56 26.71 56H37.3s3.82-3.36 4.34-5.54-2.18-5.65-2.18-5.65l-2.56-1.49v-6.85Z"/><path id="path92219-8" d="m17.64 49.11-7.13-12.34 4.56-2.64 7 12.13-.22 3.47Z"/><path id="path92935-0" d="m46.36 49.1 7.13-12.35-4.56-2.63-7 12.13.22 3.47Z"/><path id="path106342-7" d="M39.46 44.81A104 104 0 0 1 37.3 56H48a1.53 1.53 0 0 0 1.5-1.82c-.58-2.92-2.7-5.07-5.28-6.58Z"/><path id="path63308-3-4" d="m24.56 44.81-4.78 2.79c-2.57 1.51-4.7 3.66-5.27 6.58A1.52 1.52 0 0 0 16 56h10.71a106 106 0 0 1-2.15-11.19"/><path id="path25222-7-2-9-4" d="M43.3 30.2c-2 5.13-6.33 9.67-11.29 9.67s-9.25-4.54-11.3-9.67c-1-2.52-1.19-7-1.19-9.71a12.49 12.49 0 0 1 25 0c-.02 2.73-.21 7.19-1.22 9.71"/><path id="rect81785-7" d="M26.53 20.55h10.95a3.39 3.39 0 1 1 0 6.77H26.53a3.39 3.39 0 1 1 0-6.77" style="fill:#efc89d"/><path id="path84599-5" d="m8.79 31.62 2.66 4.61 2.69-1.56-2.66-4.61a1.55 1.55 0 0 0-2.69 1.56"/><path id="path86849-6" d="m55.21 31.61-2.66 4.6-2.69-1.55 2.66-4.61a1.55 1.55 0 1 1 2.69 1.56"/><path id="path138070" d="M32 8a13 13 0 0 0-1.54.1 12.49 12.49 0 0 1 11 12.39c0 2.73-.19 7.19-1.2 9.72-1.82 4.58-5.45 8.7-9.75 9.51a8 8 0 0 0 1.54.15c5 0 9.25-4.54 11.29-9.66 1-2.53 1.2-7 1.2-9.72A12.49 12.49 0 0 0 32 8" style="fill:#617880"/><path id="path143906" d="M34.66 20.55a3.39 3.39 0 0 1 0 6.77h2.82a3.39 3.39 0 1 0 0-6.77Z" style="fill:#ebb87f"/><path d="M41.87 23.93a4.39 4.39 0 0 0-4.39-4.38H26.53a4.39 4.39 0 1 0 0 8.77h10.95a4.4 4.4 0 0 0 4.39-4.39m-17.73 0a2.39 2.39 0 0 1 2.39-2.38h10.95a2.39 2.39 0 1 1 0 4.77H26.53a2.39 2.39 0 0 1-2.39-2.39"/><path d="M10.08 35.86h-.07l-1.55.9a1 1 0 0 0-.37 1.36 1 1 0 0 0 1.37.37l.69-.4 6.23 10.8A9.7 9.7 0 0 0 13.52 54 2.53 2.53 0 0 0 16 57h32a2.53 2.53 0 0 0 2-.92 2.48 2.48 0 0 0 .49-2.08 9.66 9.66 0 0 0-2.87-5.07l6.23-10.8.69.4a1 1 0 1 0 1-1.74l-1.62-.93 2.16-3.74a2.57 2.57 0 0 0-.94-3.5 2.56 2.56 0 0 0-3.49.94l-2.16 3.74-1.62-.94a1 1 0 0 0-1 1.74l.69.39-6 10.4L40 44l-2.06-1.2v-3.91a18.73 18.73 0 0 0 6.33-8.32c1.11-2.77 1.27-7.5 1.27-10.08a13.49 13.49 0 0 0-27 0c0 2.58.16 7.31 1.27 10.08a18.7 18.7 0 0 0 6.32 8.32v3.86L24.05 44l-1.61.94-6-10.39.69-.4a1 1 0 1 0-1-1.73l-1.62.93-2.16-3.74a2.54 2.54 0 0 0-1.55-1.19 2.6 2.6 0 0 0-2 .26 2.55 2.55 0 0 0-.93 3.49Zm5.52 19a.53.53 0 0 1-.11-.44c.46-2.33 2.07-4.31 4.8-5.9l3.49-2c.29 1.9.86 5.35 1.65 8.57H16a.52.52 0 0 1-.4-.28Zm32.93-.44A.52.52 0 0 1 48 55h-9.41c.78-3.22 1.35-6.67 1.64-8.57l3.5 2c2.72 1.63 4.34 3.62 4.8 5.94Zm4.85-23.82a.6.6 0 0 1 .34-.26.55.55 0 0 1 .43.06.56.56 0 0 1 .2.76l-2.16 3.74-1-.56Zm-4.09 4.94 2.83 1.63-6.06 10.44c-.42-.3-.85-.6-1.32-.87l-1.46-.85Zm-27.65-5.71c-1-2.55-1.12-7.38-1.12-9.34a11.49 11.49 0 0 1 23 0c0 2-.11 6.79-1.13 9.34-1.79 4.5-5.69 9-10.36 9s-8.6-4.5-10.39-9m6 14.36a1 1 0 0 0 .49-.87V40a9.35 9.35 0 0 0 7.79 0v3.3a1 1 0 0 0 .5.87l2 1.15c-.09.66-.26 1.76-.49 3.09h-2.37a3.31 3.31 0 0 0-2.85 1.65 1 1 0 0 0 .36 1.37 1 1 0 0 0 1.37-.37 1.3 1.3 0 0 1 1.12-.65h2c-.28 1.48-.61 3.07-1 4.57h-9c-.38-1.5-.71-3.09-1-4.57h1.95a1.3 1.3 0 0 1 1.13.65 1 1 0 0 0 1.36.37 1 1 0 0 0 .37-1.37 3.33 3.33 0 0 0-2.86-1.65h-2.37c-.23-1.33-.4-2.43-.5-3.09Zm-6.93 1.71-1.43.84c-.48.28-.92.58-1.34.88l-6.06-10.49 2.83-1.63ZM9.86 30.36a.62.62 0 0 1 .42-.06.6.6 0 0 1 .34.26l2.16 3.74-1 .56-2.13-3.74a.56.56 0 0 1 .21-.76"/></g></svg>